<svg height="64px" width="64px" version="1.1" id="Layer_1" xmlns="http://www.w3.org/2000/svg" xmlns:xlink="http://www.w3.org/1999/xlink" viewBox="0 0 512 512" xml:space="preserve" fill="#000000"><g id="SVGRepo_bgCarrier" stroke-width="0"></g><g id="SVGRepo_tracerCarrier" stroke-linecap="round" stroke-linejoin="round"></g><g id="SVGRepo_iconCarrier"> <g> <path style="fill:#F9EACD;" d="M215.871,111.749L27.11,300.51c-21.876,21.875-21.876,57.668,0,79.541l104.864,104.867 c21.876,21.875,57.67,21.875,79.543,0l47.193-47.193l47.191-47.191l47.189-47.191l47.188-47.188 c21.878-21.877,21.878-57.671,0-79.546L295.414,111.746C273.54,89.873,237.747,89.873,215.871,111.749z"></path> <g> <path style="fill:#9b9af9;" d="M295.415,111.747l104.864,104.865l2.65,2.648c12.169,12.17,32.084,12.17,44.255-0.002 c12.173-12.17,12.173-32.089,0.004-44.259l-2.59-2.587L339.615,67.43l-2.586-2.589c-12.173-12.17-32.09-12.172-44.261,0 c-12.171,12.174-12.171,32.089,0,44.258L295.415,111.747z"></path> <path style="fill:#9b9af9;" d="M339.616,67.43l104.982,104.981c40.482-40.482-9.156-55.287,38.224-102.666l10.134-10.136 c11.196-11.194,11.196-29.346,0-40.537c-11.192-11.196-29.345-11.196-40.537-0.003l-10.138,10.137 C394.903,76.585,380.099,26.947,339.616,67.43z"></path> </g> </g> <g> <path style="fill:#000003;" d="M500.498,11.527c-7.427-7.427-17.305-11.518-27.809-11.518c-10.507,0-20.381,4.091-27.813,11.518 L434.74,21.663c-16.822,16.822-27.632,19.142-36.807,19.142c-0.002,0-0.002,0-0.004,0c-3.348,0-6.691-0.334-10.232-0.687 c-3.801-0.379-7.727-0.77-11.915-0.77c-13.172,0-24.626,4.291-36.174,13.706c-7.119-5.197-15.688-8.008-24.709-8.008 c-11.233,0-21.771,4.351-29.671,12.252c-7.891,7.892-12.242,18.414-12.252,29.631c-5.582-1.477-11.392-2.255-17.33-2.255 c-17.917,0-34.722,6.937-47.318,19.532L19.566,292.968c-26.088,26.089-26.088,68.538,0,94.627l104.866,104.867 c12.594,12.594,29.397,19.53,47.313,19.53c17.917,0,34.722-6.936,47.315-19.53L407.822,303.7 c12.594-12.596,19.532-29.399,19.532-47.316c0-5.938-0.779-11.751-2.256-17.332c11.217-0.012,21.738-4.361,29.627-12.251 c7.902-7.9,12.254-18.438,12.254-29.672c0.002-9.027-2.815-17.602-8.017-24.724c15.782-19.471,14.232-35.173,12.944-48.07 c-1.39-13.951-2.592-25.999,18.455-47.046L500.5,67.153C515.833,51.816,515.833,26.864,500.498,11.527z M139.517,477.376 L34.651,372.509c-17.771-17.771-17.771-46.686,0-64.456l181.22-181.22l27.759,27.756c2.083,2.083,4.813,3.124,7.542,3.124 c2.732,0,5.46-1.042,7.544-3.124c4.164-4.167,4.164-10.92-0.002-15.085l-26.859-26.856c7.071-4.322,15.24-6.64,23.79-6.64 c12.217,0,23.661,4.717,32.226,13.281l104.866,104.865c8.564,8.564,13.284,20.011,13.284,32.229c0,8.55-2.319,16.717-6.64,23.788 l-41.955-41.956c-4.167-4.165-10.919-4.165-15.086-0.001c-4.167,4.165-4.167,10.92,0,15.085l42.856,42.857l-32.105,32.104 l-42.856-42.857c-4.167-4.165-10.919-4.165-15.086,0c-4.167,4.165-4.167,10.92,0,15.085l42.858,42.858l-32.108,32.105 l-42.852-42.857c-4.167-4.165-10.919-4.165-15.086,0c-4.167,4.165-4.167,10.92,0,15.085l42.856,42.856L258.71,422.64 l-42.858-42.857c-4.167-4.165-10.919-4.165-15.086,0.001c-4.164,4.165-4.164,10.92,0,15.085l42.858,42.857L211.52,469.83 l-48.69-48.693c-4.167-4.165-10.919-4.165-15.086,0c-4.167,4.165-4.167,10.92,0,15.085l47.793,47.795 c-7.073,4.322-15.24,6.64-23.793,6.64C159.526,490.657,148.082,485.941,139.517,477.376z M439.642,211.714 c-3.873,3.872-9.052,6.004-14.588,6.004c-5.534,0-10.711-2.131-14.582-6.002l-110.161-110.16c-3.871-3.871-6.004-9.05-6.004-14.584 c0-5.534,2.133-10.716,6.007-14.588c3.871-3.871,9.05-6.003,14.586-6.003c5.535,0,10.717,2.132,14.588,6.003l2.562,2.561 c0.009,0.01,0.015,0.019,0.025,0.028l104.982,104.981c0.009,0.009,0.017,0.016,0.027,0.023l2.56,2.562 c3.871,3.871,6.002,9.052,6.002,14.587C445.646,202.662,443.515,207.842,439.642,211.714z M485.413,52.066l-10.138,10.137 c-28.193,28.194-26.198,48.185-24.597,64.248c1.069,10.723,1.896,19.01-6.571,30.383l-88.901-88.901 c8.398-6.222,14.836-7.25,20.573-7.25c3.125,0,6.367,0.323,9.798,0.666c3.902,0.389,7.939,0.791,12.346,0.791 c0.002,0,0.002,0,0.004,0c18.33,0,34.337-7.832,51.895-25.391l10.136-10.136c3.401-3.4,7.919-5.271,12.728-5.271 c4.807,0,9.325,1.871,12.726,5.269C492.431,33.63,492.431,45.05,485.413,52.066z"></path> <path style="fill:#000003;" d="M140.977,399.291c-4.167-4.165-10.919-4.165-15.086,0c-4.167,4.165-4.167,10.92,0,15.086l0.179,0.18 c2.083,2.083,4.813,3.124,7.544,3.124c2.73,0,5.458-1.041,7.542-3.124c4.167-4.165,4.167-10.92,0-15.086L140.977,399.291z"></path> <path style="fill:#000003;" d="M265.531,176.493c2.079,2.048,4.783,3.069,7.488,3.069c2.756,0,5.511-1.061,7.598-3.179 c4.136-4.196,4.085-10.95-0.111-15.085l-0.179-0.178c-4.196-4.135-10.951-4.087-15.085,0.11c-4.136,4.196-4.085,10.95,0.111,15.085 L265.531,176.493z"></path> </g> </g></svg>